
		<svg xmlns="http://www.w3.org/2000/svg" xmlns:xlink="http://www.w3.org/1999/xlink" version="1.1" width="3173.913043478261" height="869.5652173913044">
			
			<g transform="scale(8.695652173913043) translate(10, 10)">
				<defs id="SvgjsDefs1171"/><g id="SvgjsG1172" featureKey="root" fill="#000"/><g id="SvgjsG1173" featureKey="symbol1" fill="#000" transform="matrix(1.1666666269302368,0,0,1.1666666269302368,7.666666666666666,2.6666666666666643)"><g xmlns="http://www.w3.org/2000/svg" class="st0" style="display: none;"><g class="st1" style="display: inline;"><rect x="2" y="2" class="st2" width="60" height="60" style="fill: none; stroke: #2b2b2b; stroke-width: 0.1; stroke-miterlimit: 10;"/><line class="st2" x1="32" y1="2" x2="32" y2="62" style="fill: none; stroke: #2b2b2b; stroke-width: 0.1; stroke-miterlimit: 10;"/><line class="st2" x1="62" y1="32" x2="2" y2="32" style="fill: none; stroke: #2b2b2b; stroke-width: 0.1; stroke-miterlimit: 10;"/><line class="st2" x1="2" y1="2" x2="62" y2="62" style="fill: none; stroke: #2b2b2b; stroke-width: 0.1; stroke-miterlimit: 10;"/><rect x="10" y="10" class="st2" width="44" height="44" style="fill: none; stroke: #2b2b2b; stroke-width: 0.1; stroke-miterlimit: 10;"/><line class="st2" x1="62" y1="2" x2="2" y2="62" style="fill: none; stroke: #2b2b2b; stroke-width: 0.1; stroke-miterlimit: 10;"/><line class="st2" x1="2" y1="32" x2="32" y2="2" style="fill: none; stroke: #2b2b2b; stroke-width: 0.1; stroke-miterlimit: 10;"/><line class="st2" x1="32" y1="2" x2="62" y2="32" style="fill: none; stroke: #2b2b2b; stroke-width: 0.1; stroke-miterlimit: 10;"/><line class="st2" x1="62" y1="32" x2="32" y2="62" style="fill: none; stroke: #2b2b2b; stroke-width: 0.1; stroke-miterlimit: 10;"/><line class="st2" x1="32" y1="62" x2="2" y2="32" style="fill: none; stroke: #2b2b2b; stroke-width: 0.1; stroke-miterlimit: 10;"/><circle class="st2" cx="32" cy="32" r="21" style="fill: none; stroke: #2b2b2b; stroke-width: 0.1; stroke-miterlimit: 10;"/></g></g><path xmlns="http://www.w3.org/2000/svg" d="M11,44H8c-1.7,0-3-1.3-3-3v-6.2c0-0.3-0.1-0.5-0.3-0.7L2,32l2.7-2.1C4.9,29.7,5,29.4,5,29.2V23c0-1.7,1.3-3,3-3h3v2H8  c-0.6,0-1,0.4-1,1v6.2c0,0.8-0.3,1.6-0.9,2.1L5,32l1.1,0.7C6.7,33.3,7,34,7,34.8V41c0,0.6,0.4,1,1,1h3V44z"/><path xmlns="http://www.w3.org/2000/svg" d="M53,44h3c1.7,0,3-1.3,3-3v-6.2c0-0.3,0.1-0.5,0.3-0.7L62,32l-2.7-2.1c-0.2-0.2-0.3-0.4-0.3-0.7V23c0-1.7-1.3-3-3-3h-3v2h3  c0.6,0,1,0.4,1,1v6.2c0,0.8,0.3,1.6,0.9,2.1L59,32l-1.1,0.7C57.3,33.3,57,34,57,34.8V41c0,0.6-0.4,1-1,1h-3V44z"/><circle xmlns="http://www.w3.org/2000/svg" cx="32" cy="32" r="2"/><circle xmlns="http://www.w3.org/2000/svg" cx="40" cy="32" r="2"/><circle xmlns="http://www.w3.org/2000/svg" cx="48" cy="32" r="2"/><circle xmlns="http://www.w3.org/2000/svg" cx="16" cy="32" r="2"/><circle xmlns="http://www.w3.org/2000/svg" cx="24" cy="32" r="2"/></g><g id="SvgjsG1174" featureKey="text1" fill="#000" transform="matrix(3.0120482444763184,0,0,3.0120482444763184,96.74698639874674,-16.74698532155437)"><path d="M2.28 19.38 q0 1.66 1.04 2.72 t2.62 1.06 q1.56 0 2.69 -1.07 t1.17 -2.71 q0 -1.56 -1.11 -2.66 t-2.77 -1.12 q-1.56 0 -2.59 1.06 t-1.05 2.72 z M9.68 8.88 l1.2 0 l0 15.12 l-1.2 0 l0 -1.62 l-0.04 0 q-0.5 0.88 -1.53 1.37 t-2.17 0.49 q-2.06 0 -3.44 -1.35 t-1.42 -3.51 q0 -2.06 1.35 -3.44 t3.51 -1.42 q1.18 0 2.18 0.49 t1.52 1.37 l0.04 0 l0 -7.5 z M14.600000000000001 21.44 q0 0.76 0.61 1.24 t1.51 0.48 q1.62 0 2.41 -0.85 t0.79 -2.31 l0 -0.64 l-1.44 0 q-1.84 0 -2.86 0.56 t-1.02 1.52 z M17.32 14.52 q1.86 0 2.76 0.86 t0.92 2.4 l0 2.74 q0 2.24 0.18 3.48 l-1.12 0 q-0.12 -0.62 -0.12 -1.5 l-0.04 0 q-1 1.74 -3.22 1.74 q-1.5 0 -2.38 -0.74 t-0.9 -2 q0 -1.54 1.33 -2.32 t3.71 -0.78 l1.48 0 l0 -0.54 q0 -1.14 -0.7 -1.7 t-1.9 -0.56 q-1.6 0 -2.82 1.04 l-0.7 -0.82 q0.66 -0.64 1.63 -0.97 t1.89 -0.33 z M24.880000000000003 12.1 l1.2 0 l0 2.66 l2.64 0 l0 1.08 l-2.64 0 l0 6.04 q0 0.58 0.34 0.93 t0.94 0.35 q0.66 0 1.36 -0.32 l0.1 1.08 q-0.9 0.32 -1.58 0.32 q-1.18 0 -1.77 -0.66 t-0.59 -1.7 l0 -6.04 l-2 0 l0 -1.08 l2 0 l0 -2.66 z M31.64 21.44 q0 0.76 0.61 1.24 t1.51 0.48 q1.62 0 2.41 -0.85 t0.79 -2.31 l0 -0.64 l-1.44 0 q-1.84 0 -2.86 0.56 t-1.02 1.52 z M34.36 14.52 q1.86 0 2.76 0.86 t0.92 2.4 l0 2.74 q0 2.24 0.18 3.48 l-1.12 0 q-0.12 -0.62 -0.12 -1.5 l-0.04 0 q-1 1.74 -3.22 1.74 q-1.5 0 -2.38 -0.74 t-0.9 -2 q0 -1.54 1.33 -2.32 t3.71 -0.78 l1.48 0 l0 -0.54 q0 -1.14 -0.7 -1.7 t-1.9 -0.56 q-1.6 0 -2.82 1.04 l-0.7 -0.82 q0.66 -0.64 1.63 -0.97 t1.89 -0.33 z M41.92 19.38 q0 1.66 1.04 2.72 t2.62 1.06 q1.56 0 2.69 -1.07 t1.17 -2.71 q0 -1.56 -1.11 -2.66 t-2.77 -1.12 q-1.56 0 -2.59 1.06 t-1.05 2.72 z M49.32 8.88 l1.2 0 l0 15.12 l-1.2 0 l0 -1.62 l-0.04 0 q-0.5 0.88 -1.53 1.37 t-2.17 0.49 q-2.06 0 -3.44 -1.35 t-1.42 -3.51 q0 -2.06 1.35 -3.44 t3.51 -1.42 q1.18 0 2.18 0.49 t1.52 1.37 l0.04 0 l0 -7.5 z M53.5 14.76 l3.06 7.78 l2.98 -7.78 l1.28 0 l-4.74 12.06 q-0.78 1.98 -2.56 1.98 q-0.56 0 -1.18 -0.18 l0.12 -1.12 q0.66 0.22 1.08 0.22 q0.46 0 0.82 -0.32 t0.7 -1.16 l0.86 -2.2 l-3.76 -9.28 l1.34 0 z M67.12 14.52 q1.8 0 2.65 0.97 t0.87 3.05 l0 5.46 l-1.2 0 l0 -5.4 q0 -1.54 -0.57 -2.27 t-1.75 -0.73 q-1.46 0 -2.32 1.01 t-0.88 2.81 l0 4.58 l-1.2 0 l0 -6.74 q-0.02 -0.58 -0.1 -2.5 l1.2 0 q0.04 1.58 0.08 1.62 l0.06 0 q0.4 -0.84 1.27 -1.35 t1.89 -0.51 z M81.08 18.6 q0 -1.26 -0.94 -2.13 t-2.28 -0.87 q-1.3 0 -2.24 0.87 t-1.1 2.13 l6.56 0 z M77.94 14.52 q1.92 0 3.12 1.24 t1.22 3.2 l0 0.72 l-7.76 0 q0.08 1.56 1.03 2.51 t2.47 0.97 q0.94 0 1.79 -0.45 t1.31 -1.19 l0.88 0.74 q-1.3 1.98 -4 1.98 q-2.12 -0.02 -3.39 -1.38 t-1.29 -3.5 q0 -2.08 1.31 -3.45 t3.31 -1.39 z"/></g>
			</g>
		</svg>
	